<?xml version="1.0" standalone="no"?>
<!DOCTYPE svg PUBLIC "-//W3C//DTD SVG 20010904//EN"
 "http://www.w3.org/TR/2001/REC-SVG-20010904/DTD/svg10.dtd">
<svg version="1.0" xmlns="http://www.w3.org/2000/svg"
 width="592.000000pt" height="592.000000pt" viewBox="0 0 592.000000 592.000000"
 preserveAspectRatio="xMidYMid meet">
<metadata>
Created by potrace 1.14, written by Peter Selinger 2001-2017
</metadata>
<g transform="translate(0.000000,592.000000) scale(0.100000,-0.100000)"
fill="#000000" stroke="none">
<path d="M3266 4634 c-26 -15 -168 -66 -421 -152 -49 -17 -141 -44 -204 -61
-118 -31 -162 -58 -182 -108 -8 -22 -40 -39 -223 -122 -27 -12 -72 -31 -100
-42 -28 -11 -64 -27 -81 -34 -160 -71 -649 -245 -930 -330 -66 -20 -197 -61
-290 -91 -94 -30 -178 -54 -187 -54 -18 0 -34 -18 -24 -27 3 -3 18 -7 34 -9
18 -2 49 -21 78 -48 58 -54 82 -61 165 -46 42 8 65 8 67 2 2 -6 17 -9 35 -7
137 16 157 15 157 -4 0 -20 44 -41 85 -41 32 0 35 -9 11 -33 -24 -24 -27 -76
-12 -173 5 -31 3 -44 -9 -54 -36 -30 -52 -88 -47 -172 3 -41 47 -87 98 -99 80
-20 71 -29 -101 -90 -110 -40 -122 -56 -118 -161 4 -101 21 -133 91 -171 52
-28 66 -52 37 -63 -22 -9 -19 -69 9 -150 13 -38 27 -105 31 -149 8 -83 8 -92
19 -285 8 -149 16 -212 27 -226 11 -13 53 -17 179 -18 86 0 147 4 282 20 46 6
47 5 82 -43 20 -26 36 -53 36 -59 0 -5 14 -23 30 -39 24 -23 40 -29 82 -31 29
-2 58 2 64 7 7 5 16 9 20 8 5 -1 12 0 17 1 4 1 12 4 17 5 6 1 11 3 13 5 1 1 9
3 17 5 8 2 40 11 70 20 63 19 158 45 180 51 8 2 40 10 70 18 30 8 66 17 80 20
56 11 74 16 194 55 148 47 253 68 396 76 58 3 128 8 155 10 28 3 111 7 185 10
74 3 171 8 215 11 44 3 109 7 145 9 81 6 201 15 260 21 25 2 70 7 100 9 30 3
66 7 80 10 14 3 36 7 49 10 50 9 55 26 27 90 -14 31 -26 61 -26 65 0 13 60 45
141 74 57 21 80 34 88 52 12 27 73 58 109 56 16 -1 22 4 22 17 0 26 -16 41
-141 133 l-106 78 -26 132 c-14 73 -27 149 -29 168 -3 34 -2 35 47 47 28 7 68
15 90 18 81 11 143 26 160 39 17 12 16 15 -13 36 -23 17 -33 34 -38 66 -9 63
1 84 39 81 29 -2 32 0 29 23 -2 14 -22 49 -45 79 -22 30 -40 60 -40 66 0 18
133 204 157 220 20 13 182 62 418 125 149 41 246 100 163 100 -18 0 -31 11
-48 38 -64 104 -72 155 -24 160 43 5 27 24 -44 51 -35 13 -66 25 -68 27 -2 2
33 41 79 86 76 75 81 82 64 95 -10 7 -25 13 -35 13 -9 0 -52 11 -95 25 -44 14
-146 48 -229 75 -145 47 -242 76 -525 159 -74 21 -205 60 -290 84 -159 47
-336 92 -473 122 -76 17 -78 18 -94 57 -9 22 -27 45 -42 52 -39 20 -199 20
-235 0z"/>
</g>
</svg>
